<svg width="40" height="39" viewBox="0 0 40 39" fill="none" xmlns="http://www.w3.org/2000/svg">
<path fill-rule="evenodd" clip-rule="evenodd" d="M22.4062 33.4079V32.758C22.4115 30.9091 23.9091 29.4115 25.758 29.4062H31.0595C32.9084 29.4115 34.406 30.9091 34.4112 32.758V33.4079C34.4112 33.8499 34.0529 34.2083 33.6109 34.2083H23.2066C22.7646 34.2083 22.4062 33.8499 22.4062 33.4079Z" stroke="#D74A3C" stroke-width="2.5" stroke-linecap="round" stroke-linejoin="round"/>
<path fill-rule="evenodd" clip-rule="evenodd" d="M25.3212 23.0658C24.9332 21.6752 25.5239 20.197 26.7634 19.4568C28.0029 18.7166 29.5844 18.8976 30.6247 19.8987C31.6649 20.8998 31.9063 22.4733 31.2141 23.7402C30.5219 25.0071 29.0674 25.654 27.663 25.3195C26.5307 25.0498 25.6341 24.1869 25.3212 23.0658Z" stroke="#D74A3C" stroke-width="2.5" stroke-linecap="round" stroke-linejoin="round"/>
<path fill-rule="evenodd" clip-rule="evenodd" d="M3.99219 30.2048V29.5549C3.99746 27.706 5.49503 26.2084 7.34398 26.2031H12.6454C14.4943 26.2084 15.9919 27.706 15.9972 29.5549V30.2048C15.9972 30.6468 15.6389 31.0051 15.1969 31.0051H4.79252C4.35051 31.0051 3.99219 30.6468 3.99219 30.2048Z" stroke="#D74A3C" stroke-width="2.5" stroke-linecap="round" stroke-linejoin="round"/>
<path fill-rule="evenodd" clip-rule="evenodd" d="M6.91497 19.8626C6.52692 18.4721 7.11763 16.9938 8.35712 16.2536C9.59662 15.5134 11.1782 15.6944 12.2184 16.6955C13.2586 17.6967 13.5001 19.2701 12.8079 20.5371C12.1157 21.804 10.6612 22.4509 9.25675 22.1164C8.12449 21.8467 7.22782 20.9837 6.91497 19.8626Z" stroke="#D74A3C" stroke-width="2.5" stroke-linecap="round" stroke-linejoin="round"/>
<path d="M27.9567 8.54118C27.9875 8.51101 28.0369 8.51135 28.0673 8.54194C28.0977 8.57252 28.0977 8.62189 28.0673 8.65248C28.0369 8.68307 27.9875 8.6834 27.9567 8.65323C27.9413 8.63871 27.9325 8.61843 27.9325 8.59721C27.9325 8.57599 27.9413 8.55571 27.9567 8.54118" stroke="#D74A3C" stroke-width="1.5" stroke-linecap="round" stroke-linejoin="round"/>
<path d="M23.7849 8.54118C23.8157 8.51101 23.865 8.51135 23.8954 8.54194C23.9258 8.57252 23.9258 8.62189 23.8954 8.65248C23.865 8.68307 23.8157 8.6834 23.7849 8.65323C23.7694 8.63871 23.7606 8.61843 23.7606 8.59721C23.7606 8.57599 23.7694 8.55571 23.7849 8.54118" stroke="#D74A3C" stroke-width="1.5" stroke-linecap="round" stroke-linejoin="round"/>
<path d="M19.6208 8.54118C19.6516 8.51101 19.701 8.51135 19.7313 8.54194C19.7617 8.57252 19.7617 8.62189 19.7313 8.65248C19.701 8.68307 19.6516 8.6834 19.6208 8.65323C19.6053 8.63871 19.5965 8.61843 19.5965 8.59721C19.5965 8.57599 19.6053 8.55571 19.6208 8.54118" stroke="#D74A3C" stroke-width="1.5" stroke-linecap="round" stroke-linejoin="round"/>
<path fill-rule="evenodd" clip-rule="evenodd" d="M20.0051 13.397V15.798C20.0043 16.1077 20.1823 16.3902 20.4621 16.5231C20.7419 16.6559 21.0733 16.6154 21.3129 16.419L24.5974 13.7443C24.8701 13.5185 25.2134 13.3955 25.5674 13.397H29.6091C31.3772 13.397 32.8105 11.9637 32.8105 10.1956V6.9943C32.8105 5.22625 31.3772 3.79297 29.6091 3.79297H18.4045C16.6364 3.79297 15.2031 5.22625 15.2031 6.9943V10.1956C15.2031 11.9637 16.6364 13.397 18.4045 13.397H20.0051Z" stroke="#D74A3C" stroke-width="2.5" stroke-linecap="round" stroke-linejoin="round"/>
</svg>
