<svg width="40" height="40" viewBox="0 0 40 40" fill="none" xmlns="http://www.w3.org/2000/svg">
<path fill-rule="evenodd" clip-rule="evenodd" d="M27.3207 29.1682H23.1641V25.4766H27.3174C28.3374 25.4766 29.1641 26.3032 29.1641 27.3232V27.3232C29.1657 28.3432 28.3391 29.1682 27.3207 29.1682Z" stroke="#D74A3C" stroke-width="1.5" stroke-linecap="round" stroke-linejoin="round"/>
<path d="M23.1641 25.4763V21.668H26.8524C27.9041 21.668 28.7574 22.5213 28.7574 23.573V23.573C28.7574 24.6246 27.9041 25.478 26.8524 25.478" stroke="#D74A3C" stroke-width="1.5" stroke-linecap="round" stroke-linejoin="round"/>
<path d="M18.3359 18.332L14.5859 10.832L10.8359 18.332" stroke="#D74A3C" stroke-width="1.5" stroke-linecap="round" stroke-linejoin="round"/>
<path d="M11.4922 17.0091H17.6689" stroke="#D74A3C" stroke-width="1.5" stroke-linecap="round" stroke-linejoin="round"/>
<path fill-rule="evenodd" clip-rule="evenodd" d="M30.2633 35H9.73667C7.12 35 5 32.88 5 30.2633V9.73667C5 7.12 7.12 5 9.73667 5H30.2633C32.88 5 35 7.12 35 9.73667V30.2633C35 32.88 32.88 35 30.2633 35Z" stroke="#D74A3C" stroke-width="2.5" stroke-linecap="round" stroke-linejoin="round"/>
</svg>
