<svg width="49" height="48" viewBox="0 0 49 48" fill="none" xmlns="http://www.w3.org/2000/svg">
<path d="M41.6708 18.7035C42.2172 20.4161 42.4992 22.202 42.5072 23.9997C42.5072 33.945 34.445 42.0072 24.4997 42.0072C14.5544 42.0072 6.49219 33.945 6.49219 23.9997C6.49219 14.0544 14.5544 5.99219 24.4997 5.99219C26.2973 6.00018 28.0833 6.2822 29.7959 6.82854" stroke="#D74A3C" stroke-width="3.5" stroke-linecap="round" stroke-linejoin="round"/>
<path d="M42.5053 8.54297L38.5276 12.5206L35.9766 9.96956" stroke="#D74A3C" stroke-width="2.5" stroke-linecap="round" stroke-linejoin="round"/>
<path d="M27.4951 29.0019C23.6275 29.0019 20.4922 25.8666 20.4922 21.999C20.4922 18.1314 23.6275 14.9961 27.4951 14.9961C31.3627 14.9961 34.498 18.1314 34.498 21.999C34.498 25.8666 31.3627 29.0019 27.4951 29.0019" stroke="#D74A3C" stroke-width="2.5" stroke-linecap="round" stroke-linejoin="round"/>
<path d="M21.1544 19.0352C17.7333 19.1954 14.9324 21.8111 14.5389 25.2132C14.1454 28.6153 16.2752 31.8014 19.5693 32.7384C22.8634 33.6753 26.3512 32.0872 27.8071 28.9873" stroke="#D74A3C" stroke-width="2.5" stroke-linecap="round" stroke-linejoin="round"/>
</svg>
