<svg width="49" height="49" viewBox="0 0 49 49" fill="none" xmlns="http://www.w3.org/2000/svg">
<path d="M33.4959 44.0075C28.5239 44.0075 24.4922 39.9758 24.4922 35.0037C24.4922 30.0317 28.5239 26 33.4959 26C38.47 26 42.4997 30.0317 42.4997 35.0037C42.4997 39.9758 38.47 44.0075 33.4959 44.0075" stroke="#D74A3C" stroke-width="2.5" stroke-linecap="round" stroke-linejoin="round"/>
<path d="M36.0391 32.4648L30.9609 37.543" stroke="#D74A3C" stroke-width="2.5" stroke-linecap="round" stroke-linejoin="round"/>
<path d="M36.0391 37.543L30.9609 32.4648" stroke="#D74A3C" stroke-width="2.5" stroke-linecap="round" stroke-linejoin="round"/>
<path d="M36.5039 19.998V15.6522C36.5039 14.5918 36.0817 13.5733 35.3314 12.823L29.673 7.16468C28.9227 6.41436 27.9043 5.99219 26.8438 5.99219H12.4939C10.2829 5.99219 8.49219 7.78293 8.49219 9.99385V38.0055C8.49219 40.2164 10.2829 42.0072 12.4939 42.0072H20.4972" stroke="#D74A3C" stroke-width="3.5" stroke-linecap="round" stroke-linejoin="round"/>
<path d="M36.5042 15.9964H28.5008C27.3964 15.9964 26.5 15.1 26.5 13.9955V5.99219" stroke="#D74A3C" stroke-width="2.5" stroke-linecap="round" stroke-linejoin="round"/>
</svg>
