<svg width="48" height="48" viewBox="0 0 48 48" fill="none" xmlns="http://www.w3.org/2000/svg">
<path d="M23.998 42.0095H13.9939C11.7838 42.0095 9.99219 40.2179 9.99219 38.0078" stroke="#D74A3C" stroke-width="3.5" stroke-linecap="round" stroke-linejoin="round"/>
<path d="M9.99219 38.0055V9.99385C9.99219 7.78379 11.7838 5.99219 13.9939 5.99219H30.3447C31.4059 5.99219 32.4236 6.41417 33.1738 7.16468L38.8322 12.823C39.5827 13.5733 40.0047 14.591 40.0047 15.6522V21.9989" stroke="#D74A3C" stroke-width="3.5" stroke-linecap="round" stroke-linejoin="round"/>
<path d="M40.0042 15.9964H32.0008C30.8958 15.9964 30 15.1006 30 13.9955V5.99219" stroke="#D74A3C" stroke-width="2.5" stroke-linecap="round" stroke-linejoin="round"/>
<path fill-rule="evenodd" clip-rule="evenodd" d="M29 32.1537V33.9931C29 37.3814 31.1018 40.4143 34.2743 41.604L35.2173 41.9576C35.4013 42.0266 35.6041 42.0266 35.7881 41.9576L36.7311 41.604C39.9036 40.4143 42.0054 37.3814 42.0054 33.9931V32.1537C42.0054 31.4426 41.5433 30.8141 40.8646 30.602L35.9876 29.0779C35.6719 28.9792 35.3336 28.9792 35.0178 29.0779L30.1408 30.602C29.4621 30.8141 29 31.4426 29 32.1537V32.1537Z" stroke="#D74A3C" stroke-width="2.5" stroke-linecap="round" stroke-linejoin="round"/>
<path d="M16.9922 34.0043H20.9939" stroke="#D74A3C" stroke-width="2.5" stroke-linecap="round" stroke-linejoin="round"/>
<path d="M24.9955 26.0004H16.9922" stroke="#D74A3C" stroke-width="2.5" stroke-linecap="round" stroke-linejoin="round"/>
<path d="M19.9926 18.9986V12.9961" stroke="#D74A3C" stroke-width="2.5" stroke-linecap="round" stroke-linejoin="round"/>
<path d="M22.9947 15.9965H16.9922" stroke="#D74A3C" stroke-width="2.5" stroke-linecap="round" stroke-linejoin="round"/>
</svg>
