<svg width="49" height="48" viewBox="0 0 49 48" fill="none" xmlns="http://www.w3.org/2000/svg">
<path d="M26.0781 11.9999C24.6341 6.90092 19.76 3.55621 14.483 4.04303C9.2059 4.52985 5.02594 8.70981 4.53912 13.9869C4.05231 19.2639 7.39702 24.138 12.4959 25.5821" stroke="#D74A3C" stroke-width="3.5" stroke-linecap="round" stroke-linejoin="round"/>
<path d="M32.5004 42.0074V37.3789" stroke="#D74A3C" stroke-width="2.5" stroke-linecap="round" stroke-linejoin="round"/>
<path d="M42.5004 42.01V29.4766" stroke="#D74A3C" stroke-width="2.5" stroke-linecap="round" stroke-linejoin="round"/>
<path d="M14.7578 10.1523V15.7347H19.3917" stroke="#D74A3C" stroke-width="2.5" stroke-linecap="round" stroke-linejoin="round"/>
<path d="M20.5 42.0082H44.5064" stroke="#D74A3C" stroke-width="2.5" stroke-linecap="round" stroke-linejoin="round"/>
<path fill-rule="evenodd" clip-rule="evenodd" d="M25.5866 20C29.2738 20.0002 35.1744 20.0004 39.4054 20.0004C40.902 20.0007 42.2707 20.8448 42.9428 22.182L44.0433 24.3605C44.4774 25.1552 44.603 26.0821 44.3961 26.9637C43.9893 28.6909 42.4795 29.9339 40.7064 30.0013C38.9333 30.0688 37.3334 28.9441 36.7966 27.2528C36.7545 27.1386 36.6457 27.0627 36.5239 27.0627C36.4022 27.0627 36.2934 27.1386 36.2513 27.2528C35.7334 28.8904 34.2139 30.0033 32.4965 30.0032C30.779 30.003 29.2597 28.8898 28.7422 27.2522C28.7001 27.1379 28.5912 27.062 28.4695 27.062C28.3477 27.062 28.2389 27.1379 28.1968 27.2522C27.66 28.9434 26.0601 30.0681 24.287 30.0007C22.5138 29.9332 21.004 28.6901 20.5973 26.9629C20.3904 26.0813 20.516 25.1544 20.9501 24.3597L22.0507 22.1808C22.7224 20.844 24.0905 20.0002 25.5866 20V20Z" stroke="#D74A3C" stroke-width="3.5" stroke-linecap="round" stroke-linejoin="round"/>
<path d="M22.4926 42.01V29.4766" stroke="#D74A3C" stroke-width="2.5" stroke-linecap="round" stroke-linejoin="round"/>
</svg>
