<svg width="48" height="48" viewBox="0 0 48 48" fill="none" xmlns="http://www.w3.org/2000/svg">
<path d="M13.9922 42.0082H23.9964" stroke="#D74A3C" stroke-width="1.5" stroke-linecap="round" stroke-linejoin="round"/>
<path d="M19.9922 15.9965H27.9955" stroke="#D74A3C" stroke-width="2.5" stroke-linecap="round" stroke-linejoin="round"/>
<path d="M13.9922 30.0043H23.9964" stroke="#D74A3C" stroke-width="2.5" stroke-linecap="round" stroke-linejoin="round"/>
<path d="M13.9922 36.0043H23.9964" stroke="#D74A3C" stroke-width="2.5" stroke-linecap="round" stroke-linejoin="round"/>
<path d="M34.0005 24H13.9922V42.0075" stroke="#D74A3C" stroke-width="2.5" stroke-linecap="round" stroke-linejoin="round"/>
<path d="M23.9997 42.0076H5.99219V15.7747C5.99219 14.3215 6.78063 12.9828 8.05104 12.2772L22.0569 4.49601C23.2657 3.82425 24.7357 3.82425 25.9445 4.49601L39.9503 12.2772C41.22 12.9833 42.0072 14.322 42.0072 15.7747V24.0001" stroke="#D74A3C" stroke-width="3.5" stroke-linecap="round" stroke-linejoin="round"/>
<path fill-rule="evenodd" clip-rule="evenodd" d="M32.0008 30.0039H42.005C43.11 30.0039 44.0058 30.8997 44.0058 32.0047V42.0089C44.0058 43.1139 43.11 44.0097 42.005 44.0097H32.0008C30.8958 44.0097 30 43.1139 30 42.0089V32.0047C30 30.8997 30.8958 30.0039 32.0008 30.0039Z" stroke="#D74A3C" stroke-width="2.5" stroke-linecap="round" stroke-linejoin="round"/>
<path d="M39.3892 35.5195L36.4059 38.4948L34.6172 36.71" stroke="#D74A3C" stroke-width="2.5" stroke-linecap="round" stroke-linejoin="round"/>
</svg>
