<svg width="40" height="40" viewBox="0 0 40 40" fill="none" xmlns="http://www.w3.org/2000/svg">
<path fill-rule="evenodd" clip-rule="evenodd" d="M22.4062 34.4079V33.758C22.4115 31.9091 23.9091 30.4115 25.758 30.4062H31.0595C32.9084 30.4115 34.406 31.9091 34.4112 33.758V34.4079C34.4112 34.8499 34.0529 35.2083 33.6109 35.2083H23.2066C22.7646 35.2083 22.4062 34.8499 22.4062 34.4079Z" stroke="#A7C6DF" stroke-width="2.5" stroke-linecap="round" stroke-linejoin="round"/>
<path fill-rule="evenodd" clip-rule="evenodd" d="M25.3212 24.0658C24.9332 22.6752 25.5239 21.197 26.7634 20.4568C28.0029 19.7166 29.5844 19.8976 30.6247 20.8987C31.6649 21.8998 31.9063 23.4733 31.2141 24.7402C30.5219 26.0071 29.0674 26.654 27.663 26.3195C26.5307 26.0498 25.6341 25.1869 25.3212 24.0658Z" stroke="#A7C6DF" stroke-width="2.5" stroke-linecap="round" stroke-linejoin="round"/>
<path fill-rule="evenodd" clip-rule="evenodd" d="M3.99219 31.2048V30.5549C3.99746 28.706 5.49503 27.2084 7.34398 27.2031H12.6454C14.4943 27.2084 15.9919 28.706 15.9972 30.5549V31.2048C15.9972 31.6468 15.6389 32.0051 15.1969 32.0051H4.79252C4.35051 32.0051 3.99219 31.6468 3.99219 31.2048Z" stroke="#A7C6DF" stroke-width="2.5" stroke-linecap="round" stroke-linejoin="round"/>
<path fill-rule="evenodd" clip-rule="evenodd" d="M6.91497 20.8626C6.52692 19.4721 7.11763 17.9938 8.35712 17.2536C9.59662 16.5134 11.1782 16.6944 12.2184 17.6955C13.2586 18.6967 13.5001 20.2701 12.8079 21.5371C12.1157 22.804 10.6612 23.4509 9.25675 23.1164C8.12449 22.8467 7.22782 21.9837 6.91497 20.8626Z" stroke="#A7C6DF" stroke-width="2.5" stroke-linecap="round" stroke-linejoin="round"/>
<path d="M27.9567 9.54118C27.9875 9.51101 28.0369 9.51135 28.0673 9.54194C28.0977 9.57252 28.0977 9.62189 28.0673 9.65248C28.0369 9.68307 27.9875 9.6834 27.9567 9.65323C27.9413 9.63871 27.9325 9.61843 27.9325 9.59721C27.9325 9.57599 27.9413 9.55571 27.9567 9.54118" stroke="#A7C6DF" stroke-width="1.5" stroke-linecap="round" stroke-linejoin="round"/>
<path d="M23.7849 9.54118C23.8157 9.51101 23.865 9.51135 23.8954 9.54194C23.9258 9.57252 23.9258 9.62189 23.8954 9.65248C23.865 9.68307 23.8157 9.6834 23.7849 9.65323C23.7694 9.63871 23.7606 9.61843 23.7606 9.59721C23.7606 9.57599 23.7694 9.55571 23.7849 9.54118" stroke="#A7C6DF" stroke-width="1.5" stroke-linecap="round" stroke-linejoin="round"/>
<path d="M19.6208 9.54118C19.6516 9.51101 19.701 9.51135 19.7313 9.54194C19.7617 9.57252 19.7617 9.62189 19.7313 9.65248C19.701 9.68307 19.6516 9.6834 19.6208 9.65323C19.6053 9.63871 19.5965 9.61843 19.5965 9.59721C19.5965 9.57599 19.6053 9.55571 19.6208 9.54118" stroke="#A7C6DF" stroke-width="1.5" stroke-linecap="round" stroke-linejoin="round"/>
<path fill-rule="evenodd" clip-rule="evenodd" d="M20.0051 14.397V16.798C20.0043 17.1077 20.1823 17.3902 20.4621 17.5231C20.7419 17.6559 21.0733 17.6154 21.3129 17.419L24.5974 14.7443C24.8701 14.5185 25.2134 14.3955 25.5674 14.397H29.6091C31.3772 14.397 32.8105 12.9637 32.8105 11.1956V7.9943C32.8105 6.22625 31.3772 4.79297 29.6091 4.79297H18.4045C16.6364 4.79297 15.2031 6.22625 15.2031 7.9943V11.1956C15.2031 12.9637 16.6364 14.397 18.4045 14.397H20.0051Z" stroke="#A7C6DF" stroke-width="2.5" stroke-linecap="round" stroke-linejoin="round"/>
</svg>
