<svg width="40" height="40" viewBox="0 0 40 40" fill="none" xmlns="http://www.w3.org/2000/svg">
<path d="M21.6658 34.9052C21.1127 34.9738 20.5558 35.0086 19.9984 35.0086C11.7107 35.0086 4.99219 28.2901 4.99219 20.0023C4.99219 11.7146 11.7107 4.99609 19.9984 4.99609C28.2862 4.99609 35.0047 11.7146 35.0047 20.0023C35.0047 20.5597 34.9699 21.1166 34.9013 21.6697" stroke="#A7C6DF" stroke-width="2.5" stroke-linecap="round" stroke-linejoin="round"/>
<path d="M33.3335 28.3398L29.1651 32.5082L26.6641 30.0072" stroke="#A7C6DF" stroke-width="2.5" stroke-linecap="round" stroke-linejoin="round"/>
<path d="M16.1406 16.1404C16.5357 14.4378 18.0864 13.2573 19.8327 13.3298C21.7872 13.2215 23.4626 14.7108 23.5843 16.6645C23.5843 19.172 19.9994 19.9992 19.9994 21.6666" stroke="#A7C6DF" stroke-width="2.5" stroke-linecap="round" stroke-linejoin="round"/>
<path d="M20.2062 26.2558C20.206 26.3709 20.1127 26.464 19.9977 26.464C19.8826 26.4639 19.7894 26.3707 19.7893 26.2556C19.7893 26.1406 19.8824 26.0473 19.9975 26.0471C20.0528 26.0471 20.106 26.069 20.1451 26.1082C20.1843 26.1473 20.2062 26.2005 20.2062 26.2558" stroke="#A7C6DF" stroke-width="2.5" stroke-linecap="round" stroke-linejoin="round"/>
</svg>
