<svg width="23" height="15" viewBox="0 0 23 15" fill="none" xmlns="http://www.w3.org/2000/svg">
<path d="M0 1.06934C0.000145521 0.260097 0.836666 -0.264849 1.48145 0.139648L10.3848 5.72656C10.8995 5.44956 11.5546 5.28423 12.2676 5.28418C13.4516 5.28418 14.473 5.74315 14.9609 6.40723C15.3221 5.8946 16.0575 5.54395 16.9062 5.54395C17.6733 5.54395 18.347 5.83105 18.7363 6.26465C19.0924 6.10094 19.5671 6.00005 20.0889 6C21.1934 6 22.0889 6.44772 22.0889 7C22.0889 7.55228 21.1934 8 20.0889 8C19.6351 7.99995 19.2174 7.9223 18.8818 7.79492C18.5335 8.3333 17.781 8.70703 16.9062 8.70703C16.138 8.70703 15.4633 8.41911 15.0742 7.98438C14.6476 8.74246 13.5537 9.28418 12.2676 9.28418C11.6713 9.28414 11.1164 9.16584 10.6494 8.96582L1.4375 14.748C0.792211 15.153 9.00902e-05 14.6871 0 13.9023V1.06934Z" fill="#E5867D"/>
</svg>
