<svg width="23" height="15" viewBox="0 0 23 15" fill="none" xmlns="http://www.w3.org/2000/svg">
<path d="M22.0859 13.8291C22.0858 14.6383 21.2493 15.1633 20.6045 14.7588L11.7012 9.17188C11.1864 9.44888 10.5314 9.61421 9.81836 9.61426C8.63437 9.61426 7.61294 9.15529 7.125 8.49121C6.76384 9.00384 6.02842 9.35449 5.17969 9.35449C4.41263 9.35449 3.73895 9.06739 3.34961 8.63379C2.99356 8.79749 2.51888 8.89838 1.99707 8.89844C0.892499 8.89844 -0.00293025 8.45072 -0.0029303 7.89844C-0.00293035 7.34615 0.892499 6.89844 1.99707 6.89844C2.45085 6.89849 2.86854 6.97614 3.2041 7.10352C3.55241 6.56514 4.30493 6.19141 5.17969 6.19141C5.94795 6.19141 6.62266 6.47933 7.01172 6.91406C7.4383 6.15598 8.53225 5.61426 9.81836 5.61426C10.4147 5.6143 10.9695 5.73259 11.4365 5.93262L20.6484 0.150391C21.2937 -0.254592 22.0858 0.211329 22.0859 0.996094L22.0859 13.8291Z" fill="#E5867D"/>
</svg>
