<svg width="25" height="24" viewBox="0 0 25 24" fill="none" xmlns="http://www.w3.org/2000/svg">
<path fill-rule="evenodd" clip-rule="evenodd" d="M7.996 3H17.005C19.487 3 21.5 5.012 21.5 7.496V16.505C21.5 18.987 19.488 21 17.004 21H7.996C5.513 21 3.5 18.988 3.5 16.504V7.496C3.5 5.013 5.512 3 7.996 3V3Z" stroke="#F2F9FF" stroke-width="1.5" stroke-linecap="round" stroke-linejoin="round"/>
<path d="M17.4526 6.71328C17.2666 6.71428 17.1156 6.86528 17.1156 7.05128C17.1156 7.23728 17.2676 7.38828 17.4536 7.38828C17.6396 7.38828 17.7906 7.23728 17.7906 7.05128C17.7916 6.86428 17.6396 6.71328 17.4526 6.71328" stroke="#F2F9FF" stroke-width="1.5" stroke-linecap="round" stroke-linejoin="round"/>
<path d="M15.044 9.45481C16.4499 10.8607 16.4499 13.1401 15.044 14.546C13.6381 15.9519 11.3587 15.9519 9.95285 14.546C8.54697 13.1401 8.54697 10.8607 9.95285 9.45481C11.3587 8.04892 13.6381 8.04892 15.044 9.45481" stroke="#F2F9FF" stroke-width="1.5" stroke-linecap="round" stroke-linejoin="round"/>
</svg>
