<svg width="25" height="24" viewBox="0 0 25 24" fill="none" xmlns="http://www.w3.org/2000/svg">
<path fill-rule="evenodd" clip-rule="evenodd" d="M18.7022 5.76108C17.0562 4.11408 14.8672 3.20608 12.5352 3.20508C7.72819 3.20508 3.81719 7.11408 3.81619 11.9191C3.81419 13.4481 4.21519 14.9511 4.97919 16.2761L3.74219 20.7921L8.36419 19.5801C9.64319 20.2761 11.0752 20.6411 12.5312 20.6411H12.5352C17.3402 20.6411 21.2512 16.7311 21.2532 11.9261C21.2542 9.59808 20.3482 7.40908 18.7022 5.76108Z" stroke="#F2F9FF" stroke-width="1.5" stroke-linecap="round" stroke-linejoin="round"/>
<path d="M13.5938 13.5599L13.9997 13.1569C14.3727 12.7869 14.9628 12.7399 15.3928 13.0419C15.8088 13.3339 16.1847 13.5959 16.5347 13.8399C17.0907 14.2259 17.1578 15.0179 16.6788 15.4959L16.3198 15.8549" stroke="#F2F9FF" stroke-width="1.5" stroke-linecap="round" stroke-linejoin="round"/>
<path d="M8.64844 8.17841L9.00744 7.81941C9.48544 7.34141 10.2774 7.40841 10.6634 7.96341C10.9064 8.31341 11.1684 8.68941 11.4614 9.10541C11.7634 9.53541 11.7174 10.1254 11.3464 10.4984L10.9434 10.9044" stroke="#F2F9FF" stroke-width="1.5" stroke-linecap="round" stroke-linejoin="round"/>
<path d="M16.3178 15.8553C14.8368 17.3293 12.3478 16.0773 10.3828 14.1113" stroke="#F2F9FF" stroke-width="1.5" stroke-linecap="round" stroke-linejoin="round"/>
<path d="M10.3881 14.1127C8.42307 12.1467 7.17107 9.65873 8.64507 8.17773" stroke="#F2F9FF" stroke-width="1.5" stroke-linecap="round" stroke-linejoin="round"/>
<path d="M10.9375 10.9043C11.2565 11.4073 11.6655 11.9053 12.1275 12.3673L12.1295 12.3693C12.5915 12.8313 13.0895 13.2403 13.5925 13.5593" stroke="#F2F9FF" stroke-width="1.5" stroke-linecap="round" stroke-linejoin="round"/>
</svg>
