<svg width="25" height="24" viewBox="0 0 25 24" fill="none" xmlns="http://www.w3.org/2000/svg">
<path fill-rule="evenodd" clip-rule="evenodd" d="M3.5 6.8V6.8C3.5 7.4 3.8 7.9 4.3 8.3L10.3 12.4C11.7 13.3 13.4 13.3 14.8 12.4L20.8 8.4C21.2 7.9 21.5 7.4 21.5 6.8V6.8C21.5 5.8 20.7 5 19.7 5H5.3C4.3 5 3.5 5.8 3.5 6.8Z" stroke="#F2F9FF" stroke-width="1.5" stroke-linecap="round" stroke-linejoin="round"/>
<path d="M3.5 7V17C3.5 18.1 4.4 19 5.5 19H19.5C20.6 19 21.5 18.1 21.5 17V7" stroke="#F2F9FF" stroke-width="1.5" stroke-linecap="round" stroke-linejoin="round"/>
<path d="M4.08594 18.4124L10.1799 12.3184" stroke="#F2F9FF" stroke-width="1.5" stroke-linecap="round" stroke-linejoin="round"/>
<path d="M14.8594 12.3594L20.9114 18.4114" stroke="#F2F9FF" stroke-width="1.5" stroke-linecap="round" stroke-linejoin="round"/>
</svg>
