<svg width="24" height="25" viewBox="0 0 24 25" fill="none" xmlns="http://www.w3.org/2000/svg">
<path fill-rule="evenodd" clip-rule="evenodd" d="M10.0456 14.369C8.8756 13.199 7.9936 11.889 7.4076 10.56C7.2836 10.279 7.3566 9.94997 7.5736 9.73297L8.3926 8.91397C9.0636 8.24297 9.0636 7.29397 8.4776 6.70797L7.3036 5.53497C6.5226 4.75397 5.2566 4.75397 4.4756 5.53497L3.8236 6.18597C3.0826 6.92697 2.7736 7.99597 2.9736 9.05597C3.4676 11.669 4.9856 14.53 7.4346 16.979C9.8836 19.428 12.7446 20.946 15.3576 21.44C16.4176 21.64 17.4866 21.331 18.2276 20.59L18.8786 19.939C19.6596 19.158 19.6596 17.892 18.8786 17.111L17.7056 15.938C17.1196 15.352 16.1696 15.352 15.5846 15.938L14.6816 16.842C14.4646 17.059 14.1356 17.132 13.8546 17.008C12.5256 16.421 11.2156 15.538 10.0456 14.369Z" stroke="#F2C3BE" stroke-width="1.5" stroke-linecap="round" stroke-linejoin="round"/>
<path d="M12.9141 5.67008V3.33008" stroke="#F2C3BE" stroke-width="1.5" stroke-linecap="round" stroke-linejoin="round"/>
<path d="M17.0859 7.31969L18.7359 5.67969" stroke="#F2C3BE" stroke-width="1.5" stroke-linecap="round" stroke-linejoin="round"/>
<path d="M18.75 11.5H21.08" stroke="#F2C3BE" stroke-width="1.5" stroke-linecap="round" stroke-linejoin="round"/>
</svg>
