<svg width="24" height="24" viewBox="0 0 24 24" fill="none" xmlns="http://www.w3.org/2000/svg">
<path d="M20.9997 11.9998C20.9997 16.9725 16.9686 21.0036 11.9959 21.0036C7.0233 21.0036 2.99219 16.9725 2.99219 11.9998C2.99219 7.02721 7.0233 2.99609 11.9959 2.99609" stroke="#B23124" stroke-width="1.5" stroke-linecap="round" stroke-linejoin="round"/>
<path fill-rule="evenodd" clip-rule="evenodd" d="M18.3415 2.38783C18.4734 2.14633 18.7266 1.99609 19.0017 1.99609C19.2769 1.99609 19.5301 2.14633 19.662 2.38783L20.2453 3.45328C20.3145 3.58002 20.4186 3.6842 20.5454 3.7534L21.6108 4.33565C21.8529 4.46738 22.0035 4.72087 22.0035 4.99642C22.0035 5.27197 21.8529 5.52547 21.6108 5.6572L20.5454 6.24044C20.4183 6.30923 20.3141 6.41351 20.2453 6.54056L19.662 7.60501C19.5301 7.84651 19.2769 7.99675 19.0017 7.99675C18.7266 7.99675 18.4734 7.84651 18.3415 7.60501L17.7582 6.53956C17.6894 6.41251 17.5852 6.30823 17.4581 6.23944L16.3927 5.6572C16.1506 5.52547 16 5.27197 16 4.99642C16 4.72087 16.1506 4.46738 16.3927 4.33565L17.4581 3.7534C17.5848 3.6842 17.689 3.58002 17.7582 3.45328L18.3415 2.38783Z" stroke="#B23124" stroke-width="1.5"/>
<path d="M8.9924 9.32812V10.3285" stroke="#B23124" stroke-width="1.5" stroke-linecap="round" stroke-linejoin="round"/>
<path d="M15.0002 9.32812V10.3285" stroke="#B23124" stroke-width="1.5" stroke-linecap="round" stroke-linejoin="round"/>
<path d="M15.2435 14.6602C13.4521 16.4501 10.5492 16.4501 8.75781 14.6602" stroke="#B23124" stroke-width="1.5" stroke-linecap="round" stroke-linejoin="round"/>
</svg>
