<svg width="24" height="24" viewBox="0 0 24 24" fill="none" xmlns="http://www.w3.org/2000/svg">
<path fill-rule="evenodd" clip-rule="evenodd" d="M10.0456 13.869C8.8756 12.699 7.9936 11.389 7.4076 10.06C7.2836 9.77897 7.3566 9.44997 7.5736 9.23297L8.3926 8.41397C9.0636 7.74297 9.0636 6.79397 8.4776 6.20797L7.3036 5.03497C6.5226 4.25397 5.2566 4.25397 4.4756 5.03497L3.8236 5.68597C3.0826 6.42697 2.7736 7.49597 2.9736 8.55597C3.4676 11.169 4.9856 14.03 7.4346 16.479C9.8836 18.928 12.7446 20.446 15.3576 20.94C16.4176 21.14 17.4866 20.831 18.2276 20.09L18.8786 19.439C19.6596 18.658 19.6596 17.392 18.8786 16.611L17.7056 15.438C17.1196 14.852 16.1696 14.852 15.5846 15.438L14.6816 16.342C14.4646 16.559 14.1356 16.632 13.8546 16.508C12.5256 15.921 11.2156 15.038 10.0456 13.869Z" stroke="#D74A3C" stroke-width="1.5" stroke-linecap="round" stroke-linejoin="round"/>
<path d="M12.9141 5.16812V2.82812" stroke="#D74A3C" stroke-width="1.5" stroke-linecap="round" stroke-linejoin="round"/>
<path d="M17.0859 6.81969L18.7359 5.17969" stroke="#D74A3C" stroke-width="1.5" stroke-linecap="round" stroke-linejoin="round"/>
<path d="M18.75 11H21.08" stroke="#D74A3C" stroke-width="1.5" stroke-linecap="round" stroke-linejoin="round"/>
</svg>
