<svg width="24" height="24" viewBox="0 0 24 24" fill="none" xmlns="http://www.w3.org/2000/svg">
<path fill-rule="evenodd" clip-rule="evenodd" d="M18.2022 5.76303C16.5562 4.11603 14.3672 3.20803 12.0352 3.20703C7.22819 3.20703 3.31719 7.11603 3.31619 11.921C3.31419 13.45 3.71519 14.953 4.47919 16.278L3.24219 20.794L7.86419 19.582C9.14319 20.278 10.5752 20.643 12.0312 20.643H12.0352C16.8402 20.643 20.7512 16.733 20.7532 11.928C20.7542 9.60003 19.8482 7.41103 18.2022 5.76303Z" stroke="#316086" stroke-width="1.5" stroke-linecap="round" stroke-linejoin="round"/>
<path d="M13.0938 13.5599L13.4997 13.1569C13.8727 12.7869 14.4628 12.7399 14.8928 13.0419C15.3088 13.3339 15.6847 13.5959 16.0347 13.8399C16.5907 14.2259 16.6578 15.0179 16.1788 15.4959L15.8198 15.8549" stroke="#316086" stroke-width="1.5" stroke-linecap="round" stroke-linejoin="round"/>
<path d="M8.14844 8.17841L8.50744 7.81941C8.98544 7.34141 9.77744 7.40841 10.1634 7.96341C10.4064 8.31341 10.6684 8.68941 10.9614 9.10541C11.2634 9.53541 11.2174 10.1254 10.8464 10.4984L10.4434 10.9044" stroke="#316086" stroke-width="1.5" stroke-linecap="round" stroke-linejoin="round"/>
<path d="M15.8178 15.8534C14.3368 17.3274 11.8478 16.0754 9.88281 14.1094" stroke="#316086" stroke-width="1.5" stroke-linecap="round" stroke-linejoin="round"/>
<path d="M9.88807 14.1147C7.92307 12.1487 6.67107 9.66069 8.14507 8.17969" stroke="#316086" stroke-width="1.5" stroke-linecap="round" stroke-linejoin="round"/>
<path d="M10.4375 10.9062C10.7565 11.4093 11.1655 11.9073 11.6275 12.3693L11.6295 12.3713C12.0915 12.8333 12.5895 13.2422 13.0925 13.5612" stroke="#316086" stroke-width="1.5" stroke-linecap="round" stroke-linejoin="round"/>
</svg>
