<svg width="24" height="25" viewBox="0 0 24 25" fill="none" xmlns="http://www.w3.org/2000/svg">
<g clip-path="url(#clip0_2074_23682)">
<path d="M15.0475 5.5C16.0242 5.69057 16.9219 6.16826 17.6256 6.87194C18.3292 7.57561 18.8069 8.47326 18.9975 9.45M15.0475 1.5C17.0768 1.72544 18.9691 2.63417 20.4137 4.07701C21.8584 5.51984 22.7695 7.41101 22.9975 9.44M21.9975 17.42V20.42C21.9986 20.6985 21.9416 20.9742 21.83 21.2293C21.7184 21.4845 21.5548 21.7136 21.3496 21.9019C21.1443 22.0901 20.9021 22.2335 20.6382 22.3227C20.3744 22.4119 20.0949 22.4451 19.8175 22.42C16.7403 22.0856 13.7845 21.0341 11.1875 19.35C8.77132 17.8147 6.72283 15.7662 5.18749 13.35C3.49747 10.7412 2.44573 7.77099 2.11749 4.68C2.0925 4.40347 2.12537 4.12476 2.21399 3.86162C2.30262 3.59849 2.44506 3.35669 2.63226 3.15162C2.81945 2.94655 3.0473 2.78271 3.30128 2.67052C3.55527 2.55833 3.82983 2.50026 4.10749 2.5H7.10749C7.5928 2.49522 8.06328 2.66708 8.43125 2.98353C8.79922 3.29999 9.03957 3.73945 9.10749 4.22C9.23411 5.18007 9.46894 6.12273 9.80749 7.03C9.94204 7.38792 9.97115 7.77691 9.8914 8.15088C9.81164 8.52485 9.62635 8.86811 9.35749 9.14L8.08749 10.41C9.51105 12.9135 11.5839 14.9864 14.0875 16.41L15.3575 15.14C15.6294 14.8711 15.9726 14.6858 16.3466 14.6061C16.7206 14.5263 17.1096 14.5555 17.4675 14.69C18.3748 15.0286 19.3174 15.2634 20.2775 15.39C20.7633 15.4585 21.2069 15.7032 21.524 16.0775C21.8412 16.4518 22.0097 16.9296 21.9975 17.42Z" stroke="#B23124" stroke-width="2" stroke-linecap="round" stroke-linejoin="round"/>
</g>
<defs>
<clipPath id="clip0_2074_23682">
<rect width="24" height="24" fill="white" transform="translate(0 0.5)"/>
</clipPath>
</defs>
</svg>
