<svg width="48" height="48" viewBox="0 0 48 48" fill="none" xmlns="http://www.w3.org/2000/svg">
<path d="M39.4431 12.9575L39.4631 12.9175" stroke="#D3E2EF" stroke-width="2.5" stroke-linecap="round" stroke-linejoin="round"/>
<path d="M29.7366 5.85719L29.7166 5.87719" stroke="#D3E2EF" stroke-width="2.5" stroke-linecap="round" stroke-linejoin="round"/>
<path d="M43 23.8381V23.8181" stroke="#D3E2EF" stroke-width="2.5" stroke-linecap="round" stroke-linejoin="round"/>
<path d="M5 23.8181V23.8381" stroke="#D3E2EF" stroke-width="2.5" stroke-linecap="round" stroke-linejoin="round"/>
<path d="M8.53688 12.9175L8.55688 12.9575" stroke="#D3E2EF" stroke-width="2.5" stroke-linecap="round" stroke-linejoin="round"/>
<path d="M18.2834 5.87719L18.2634 5.85719" stroke="#D3E2EF" stroke-width="2.5" stroke-linecap="round" stroke-linejoin="round"/>
<path d="M37.435 10.565C44.8549 17.9849 44.8549 30.0151 37.435 37.435C30.015 44.8549 17.9849 44.8549 10.565 37.435C3.14501 30.015 3.14501 17.9849 10.565 10.565C17.9849 3.14501 30.0151 3.14501 37.435 10.565" stroke="#D3E2EF" stroke-width="2.5" stroke-linecap="round" stroke-linejoin="round"/>
<path d="M31.7812 21.4977L35.7812 20.1977" stroke="#D3E2EF" stroke-width="2.5" stroke-linecap="round" stroke-linejoin="round"/>
<path d="M42.8833 25.6863L35.7812 20.1903L38.2973 11.5703" stroke="#D3E2EF" stroke-width="2.5" stroke-linecap="round" stroke-linejoin="round"/>
<path d="M24 15.8567V11.6367" stroke="#D3E2EF" stroke-width="2.5" stroke-linecap="round" stroke-linejoin="round"/>
<path d="M31.4221 6.57422L24.0001 11.6282L16.5781 6.57422" stroke="#D3E2EF" stroke-width="2.5" stroke-linecap="round" stroke-linejoin="round"/>
<path d="M28.7969 30.6172L31.2769 34.0372" stroke="#D3E2EF" stroke-width="2.5" stroke-linecap="round" stroke-linejoin="round"/>
<path d="M28.25 42.4974L31.284 34.0454L40.258 33.7734" stroke="#D3E2EF" stroke-width="2.5" stroke-linecap="round" stroke-linejoin="round"/>
<path d="M16.2187 21.4977L12.2188 20.1977" stroke="#D3E2EF" stroke-width="2.5" stroke-linecap="round" stroke-linejoin="round"/>
<path d="M5.11719 25.6863L12.2192 20.1903L9.70319 11.5703" stroke="#D3E2EF" stroke-width="2.5" stroke-linecap="round" stroke-linejoin="round"/>
<path d="M19.1988 30.6172L16.7188 34.0372" stroke="#D3E2EF" stroke-width="2.5" stroke-linecap="round" stroke-linejoin="round"/>
<path d="M19.7502 42.4974L16.7162 34.0454L7.74219 33.7734" stroke="#D3E2EF" stroke-width="2.5" stroke-linecap="round" stroke-linejoin="round"/>
<path fill-rule="evenodd" clip-rule="evenodd" d="M23.9966 15.8516L31.7666 21.4976L28.7986 30.6296H19.1946L16.2266 21.4976L23.9966 15.8516Z" stroke="#D3E2EF" stroke-width="2.5" stroke-linecap="round" stroke-linejoin="round"/>
</svg>
