<svg width="48" height="48" viewBox="0 0 48 48" fill="none" xmlns="http://www.w3.org/2000/svg">
<path d="M30.1204 17.956C25.8324 15.382 20.6084 17.554 18.4464 21.188C14.0304 28.554 22.3484 41.738 22.5824 41.866" stroke="#D3E2EF" stroke-width="2.5" stroke-linecap="round" stroke-linejoin="round"/>
<path d="M40.0981 23.9375C44.3861 26.5115 44.9301 32.1315 42.7481 35.7595C38.3381 43.1075 22.7921 41.9895 22.5781 41.8675" stroke="#D3E2EF" stroke-width="2.5" stroke-linecap="round" stroke-linejoin="round"/>
<path d="M33.7652 23.179C33.4652 21.577 32.5512 19.429 30.1172 17.957" stroke="#D3E2EF" stroke-width="2.5" stroke-linecap="round" stroke-linejoin="round"/>
<path d="M33.7656 23.1806C35.3196 22.6806 37.6456 22.4606 40.0996 23.9386" stroke="#D3E2EF" stroke-width="2.5" stroke-linecap="round" stroke-linejoin="round"/>
<path d="M28.1638 17.1257C28.7858 15.4297 29.0058 13.6817 28.6018 12.0097C27.7098 8.37175 23.8918 5.15975 19.5898 6.19775C17.1358 6.79775 15.7978 8.37775 15.1318 9.64375C13.9318 8.80775 12.0318 8.02575 9.57576 8.62575C5.27176 9.66575 3.31976 14.2517 4.21176 17.8897C5.52776 23.3517 13.1878 26.4977 17.2018 27.7477" stroke="#D3E2EF" stroke-width="2.5" stroke-linecap="round" stroke-linejoin="round"/>
</svg>
