<svg width="48" height="48" viewBox="0 0 48 48" fill="none" xmlns="http://www.w3.org/2000/svg">
<path d="M24 22V20" stroke="#D3E2EF" stroke-width="2.5" stroke-linecap="round" stroke-linejoin="round"/>
<path d="M24 34V36" stroke="#D3E2EF" stroke-width="2.5" stroke-linecap="round" stroke-linejoin="round"/>
<path d="M20.528 32.5681C21.046 33.4161 21.93 34.0021 23 34.0021H24H25.192C26.744 34.0021 28 32.7441 28 31.1941C28 29.9061 27.122 28.7841 25.874 28.4681L22.124 27.5261C20.878 27.2141 20 26.0921 20 24.8041C20 23.2521 21.258 21.9961 22.808 21.9961H24H25C26.066 21.9961 26.95 22.5801 27.466 23.4261" stroke="#D3E2EF" stroke-width="2.5" stroke-linecap="round" stroke-linejoin="round"/>
<path fill-rule="evenodd" clip-rule="evenodd" d="M38 41H10C7.79 41 6 39.21 6 37V19C6 16.79 7.79 15 10 15H38C40.21 15 42 16.79 42 19V37C42 39.21 40.21 41 38 41Z" stroke="#D3E2EF" stroke-width="2.5" stroke-linecap="round" stroke-linejoin="round"/>
<path d="M32.3444 15V11C32.3444 8.79 30.5544 7 28.3444 7H19.6484C17.4384 7 15.6484 8.79 15.6484 11V15" stroke="#D3E2EF" stroke-width="2.5" stroke-linecap="round" stroke-linejoin="round"/>
</svg>
