<svg width="48" height="48" viewBox="0 0 48 48" fill="none" xmlns="http://www.w3.org/2000/svg">
<path fill-rule="evenodd" clip-rule="evenodd" d="M34.0039 42.0078H13.9955C9.5754 42.0078 5.99219 38.4245 5.99219 34.0044V17.9978C5.99219 15.7877 7.78379 13.9961 9.99385 13.9961H38.0055C40.2156 13.9961 42.0072 15.7877 42.0072 17.9978V34.0044C42.0072 38.4245 38.424 42.0078 34.0039 42.0078Z" stroke="#D3E2EF" stroke-width="2.5" stroke-linecap="round" stroke-linejoin="round"/>
<path d="M15.9922 13.9955V9.99385C15.9922 7.78379 17.7838 5.99219 19.9939 5.99219H27.9972C30.2072 5.99219 31.9989 7.78379 31.9989 9.99385V13.9955" stroke="#D3E2EF" stroke-width="2.5" stroke-linecap="round" stroke-linejoin="round"/>
<rect x="19.9922" y="22" width="8.00333" height="6.0025" rx="0.5" stroke="#D3E2EF" stroke-width="2.5" stroke-linecap="round" stroke-linejoin="round"/>
<path d="M28 25.0029H35.0029C38.8705 25.0029 42.0058 21.8676 42.0058 18V18" stroke="#D3E2EF" stroke-width="2.5" stroke-linecap="round" stroke-linejoin="round"/>
<path d="M19.998 25.0029H12.9951C9.1275 25.0029 5.99219 21.8676 5.99219 18V18" stroke="#D3E2EF" stroke-width="2.5" stroke-linecap="round" stroke-linejoin="round"/>
</svg>
