<svg width="24" height="24" viewBox="0 0 24 24" fill="none" xmlns="http://www.w3.org/2000/svg">
<path fill-rule="evenodd" clip-rule="evenodd" d="M7.496 3H16.505C18.987 3 21 5.012 21 7.496V16.505C21 18.987 18.988 21 16.504 21H7.496C5.013 21 3 18.988 3 16.504V7.496C3 5.013 5.012 3 7.496 3V3Z" stroke="#D74A3C" stroke-width="1.5" stroke-linecap="round" stroke-linejoin="round"/>
<path d="M16.9526 6.71328C16.7666 6.71428 16.6156 6.86528 16.6156 7.05128C16.6156 7.23728 16.7676 7.38828 16.9536 7.38828C17.1396 7.38828 17.2906 7.23728 17.2906 7.05128C17.2916 6.86428 17.1396 6.71328 16.9526 6.71328" stroke="#D74A3C" stroke-width="1.5" stroke-linecap="round" stroke-linejoin="round"/>
<path d="M14.544 9.45285C15.9499 10.8587 15.9499 13.1381 14.544 14.544C13.1381 15.9499 10.8587 15.9499 9.45285 14.544C8.04697 13.1381 8.04697 10.8587 9.45285 9.45285C10.8587 8.04697 13.1381 8.04697 14.544 9.45285" stroke="#D74A3C" stroke-width="1.5" stroke-linecap="round" stroke-linejoin="round"/>
</svg>
